<svg id="Layer_1" xmlns="http://www.w3.org/2000/svg" viewBox="0 0 282 112"><style>.st0{fill:#fff}</style><g id="XMLID_1_"><path id="XMLID_17_" class="st0" d="M57.8 35.4c-3 0-5.8.7-8.4 2.1-2.6 1.4-4.6 3.3-5.9 5.8-.9-2.6-2.4-4.6-4.4-5.9-2-1.3-4.6-2-7.7-2-3.1 0-5.8.6-7.9 1.7-2.1 1.1-3.9 2.8-5.2 5.2v-5.4H5V83h13.2V59.3c0-4.3.7-7.6 2.1-9.9 1.4-2.3 3.3-3.5 5.6-3.5 2.1 0 3.6.7 4.5 2.1.8 1.4 1.3 4 1.3 7.8V83h13.1V59.3c0-4.3.7-7.6 2.1-9.9 1.4-2.3 3.3-3.5 5.6-3.5 2.1 0 3.6.7 4.5 2.1.8 1.4 1.3 4 1.3 7.8V83h13V53.2c0-6.2-1.1-10.7-3.2-13.6-2.2-2.8-5.6-4.2-10.3-4.2z"/><path id="XMLID_21_" class="st0" d="M101.5 35.4c-7 0-12.7 2.3-17.3 7-4.6 4.6-6.8 10.5-6.8 17.6 0 7 2.3 12.9 6.9 17.6 3.6 3.7 7.9 5.9 12.8 6.7v5.6H87v8.7h10.1v9.1h8.7v-9.1H116v-8.7h-10.2v-5.5c5-.8 9.3-3 12.9-6.7 4.5-4.7 6.8-10.6 6.8-17.6 0-6.9-2.3-12.8-6.8-17.5-4.6-4.9-10.3-7.2-17.2-7.2zm7.8 33.9c-1.9 2.4-4.6 3.6-7.8 3.6-3.1 0-5.7-1.2-7.7-3.6-2-2.4-3-5.5-3-9.4 0-3.8 1-6.8 3-9.2 2-2.4 4.6-3.6 7.7-3.6 3 0 5.6 1.2 7.6 3.7 2.1 2.4 3.1 5.5 3.1 9.2 0 3.8-1 6.9-2.9 9.3z"/><path id="XMLID_24_" class="st0" d="M150.8 35.4c-6.3 0-11.7 2.4-16 7.1-4.3 4.7-6.5 10.5-6.5 17.4 0 7.4 2.1 13.4 6.2 17.9 4.1 4.5 9.6 6.8 16.5 6.8 4.7 0 8.8-1 12.3-2.9s6.1-4.7 7.9-8.4L160.6 68c-.8 1.8-2.1 3.2-3.7 4.3-1.7 1-3.5 1.6-5.6 1.6-2.4 0-4.5-.9-6.4-2.7-1.9-1.8-3.1-4.2-3.8-7.1H173c.1-.5.1-1 .2-1.5v-2.5c0-7.1-2.1-13-6.2-17.6-4.3-4.8-9.6-7.1-16.2-7.1zm-9.5 20.4c.6-3 1.7-5.3 3.4-7.1 1.7-1.8 3.7-2.7 6.1-2.7 2.4 0 4.4.9 6 2.6s2.8 4.1 3.4 7.2h-18.9z"/><path id="XMLID_27_" class="st0" d="M209.5 42.1c-1-2.1-2.6-3.8-4.8-5-2.2-1.2-4.7-1.8-7.6-1.8-6.3 0-11.4 2.3-15.3 6.9-3.9 4.6-5.8 10.5-5.8 17.7 0 7.2 1.9 13.1 5.8 17.7s9 6.9 15.3 6.9c2.7 0 5.1-.6 7.2-1.7s3.8-2.8 5.2-5.1V83h13.2V5.4h-13.2v36.7zm-2.9 27c-1.9 2.5-4.3 3.7-7.3 3.7-2.9 0-5.3-1.2-7.2-3.7-1.9-2.5-2.8-5.5-2.8-9.2s1-6.7 2.9-9.2c1.9-2.5 4.3-3.7 7.2-3.7 2.9 0 5.3 1.2 7.2 3.7 1.9 2.5 2.9 5.6 2.9 9.2 0 3.7-.9 6.8-2.9 9.2z"/><path id="XMLID_30_" class="st0" d="M262.6 36.8v5.3c-1-2.1-2.6-3.8-4.8-5-2.2-1.2-4.7-1.8-7.6-1.8-6.3 0-11.4 2.3-15.3 6.9-3.9 4.6-5.8 10.5-5.8 17.7 0 7.2 1.9 13.1 5.8 17.7s9 6.9 15.3 6.9c2.7 0 5.1-.6 7.2-1.7 2.1-1.1 3.8-2.8 5.2-5.1V83h13.2V36.8h-13.2zm-2.8 32.3c-1.9 2.5-4.3 3.7-7.3 3.7-2.9 0-5.3-1.2-7.2-3.7-1.9-2.5-2.8-5.5-2.8-9.2s1-6.7 2.9-9.2c1.9-2.5 4.3-3.7 7.2-3.7 2.9 0 5.3 1.2 7.2 3.7 1.9 2.5 2.9 5.6 2.9 9.2-.1 3.7-1 6.8-2.9 9.2z"/></g></svg>