<?xml version="1.0" encoding="utf-8"?>
<!-- Generator: Adobe Illustrator 21.1.0, SVG Export Plug-In . SVG Version: 6.00 Build 0)  -->
<svg version="1.1" id="Layer_1" xmlns="http://www.w3.org/2000/svg" xmlns:xlink="http://www.w3.org/1999/xlink" x="0px" y="0px"
	 viewBox="0 0 282 112" style="enable-background:new 0 0 282 112;" xml:space="preserve">
<style type="text/css">
	.st0{fill:#FFFFFF;}
</style>
<g id="XMLID_1_">
	<path id="XMLID_17_" class="st0" d="M57.8,35.4c-3,0-5.8,0.7-8.4,2.1c-2.6,1.4-4.6,3.3-5.9,5.8c-0.9-2.6-2.4-4.6-4.4-5.9
		c-2-1.3-4.6-2-7.7-2s-5.8,0.6-7.9,1.7c-2.1,1.1-3.9,2.8-5.2,5.2v-5.4H5V83h13.2V59.3c0-4.3,0.7-7.6,2.1-9.9s3.3-3.5,5.6-3.5
		c2.1,0,3.6,0.7,4.5,2.1c0.8,1.4,1.3,4,1.3,7.8V83h13.1V59.3c0-4.3,0.7-7.6,2.1-9.9c1.4-2.3,3.3-3.5,5.6-3.5c2.1,0,3.6,0.7,4.5,2.1
		c0.8,1.4,1.3,4,1.3,7.8V83h13V53.2c0-6.2-1.1-10.7-3.2-13.6C65.9,36.8,62.5,35.4,57.8,35.4z"/>
	<path id="XMLID_24_" class="st0" d="M150.8,35.4c-6.3,0-11.7,2.4-16,7.1s-6.5,10.5-6.5,17.4c0,7.4,2.1,13.4,6.2,17.9
		c4.1,4.5,9.6,6.8,16.5,6.8c4.7,0,8.8-1,12.3-2.9s6.1-4.7,7.9-8.4L160.6,68c-0.8,1.8-2.1,3.2-3.7,4.3c-1.7,1-3.5,1.6-5.6,1.6
		c-2.4,0-4.5-0.9-6.4-2.7c-1.9-1.8-3.1-4.2-3.8-7.1H173c0.1-0.5,0.1-1,0.2-1.5c0-0.6,0-1.4,0-2.5c0-7.1-2.1-13-6.2-17.6
		C162.7,37.7,157.4,35.4,150.8,35.4z M141.3,55.8c0.6-3,1.7-5.3,3.4-7.1s3.7-2.7,6.1-2.7c2.4,0,4.4,0.9,6,2.6s2.8,4.1,3.4,7.2H141.3
		z"/>
	<path id="XMLID_27_" class="st0" d="M209.5,42.1c-1-2.1-2.6-3.8-4.8-5s-4.7-1.8-7.6-1.8c-6.3,0-11.4,2.3-15.3,6.9
		c-3.9,4.6-5.8,10.5-5.8,17.7s1.9,13.1,5.8,17.7c3.9,4.6,9,6.9,15.3,6.9c2.7,0,5.1-0.6,7.2-1.7s3.8-2.8,5.2-5.1V83h13.2V5.4h-13.2
		L209.5,42.1L209.5,42.1z M206.6,69.1c-1.9,2.5-4.3,3.7-7.3,3.7c-2.9,0-5.3-1.2-7.2-3.7s-2.8-5.5-2.8-9.2s1-6.7,2.9-9.2
		s4.3-3.7,7.2-3.7s5.3,1.2,7.2,3.7s2.9,5.6,2.9,9.2C209.5,63.6,208.6,66.7,206.6,69.1z"/>
	<path id="XMLID_30_" class="st0" d="M262.6,36.8v5.3c-1-2.1-2.6-3.8-4.8-5c-2.2-1.2-4.7-1.8-7.6-1.8c-6.3,0-11.4,2.3-15.3,6.9
		c-3.9,4.6-5.8,10.5-5.8,17.7s1.9,13.1,5.8,17.7c3.9,4.6,9,6.9,15.3,6.9c2.7,0,5.1-0.6,7.2-1.7s3.8-2.8,5.2-5.1V83h13.2V36.8H262.6z
		 M259.8,69.1c-1.9,2.5-4.3,3.7-7.3,3.7c-2.9,0-5.3-1.2-7.2-3.7s-2.8-5.5-2.8-9.2s1-6.7,2.9-9.2s4.3-3.7,7.2-3.7s5.3,1.2,7.2,3.7
		c1.9,2.5,2.9,5.6,2.9,9.2C262.6,63.6,261.7,66.7,259.8,69.1z"/>
	<path class="st0" d="M118.7,42.6c-4.6-4.9-10.3-7.2-17.2-7.2c-7,0-12.7,2.3-17.3,7C79.6,47,77.4,52.9,77.4,60
		c0,7,2.3,12.9,6.9,17.6c3.6,3.7,7.9,5.9,12.8,6.7l0,4.2H87v4.5h10.2v2.4H87v4.2h10.1v8.1h8.7v-8.1H116v-4.2h-10.3v-2.4H116v-4.5
		h-10.2l0-4.1c5-0.8,9.3-3,12.9-6.7c4.5-4.7,6.8-10.6,6.8-17.6C125.5,53.2,123.2,47.3,118.7,42.6z M109.3,69.3
		c-1.9,2.4-4.6,3.6-7.8,3.6c-3.1,0-5.7-1.2-7.7-3.6c-2-2.4-3-5.5-3-9.4c0-3.8,1-6.8,3-9.2c2-2.4,4.6-3.6,7.7-3.6
		c3,0,5.6,1.2,7.6,3.7c2.1,2.4,3.1,5.5,3.1,9.2C112.2,63.8,111.2,66.9,109.3,69.3z"/>
</g>
</svg>
